<svg fill="none" height="60" viewBox="0 0 60 60" width="60" xmlns="http://www.w3.org/2000/svg" xmlns:xlink="http://www.w3.org/1999/xlink"><linearGradient id="a" gradientUnits="userSpaceOnUse" x1="30" x2="30" y1="0" y2="60"><stop offset="0" stop-color="#21afff"/><stop offset="1" stop-color="#007eff"/></linearGradient><clipPath id="b"><rect height="60" rx="30" width="60"/></clipPath><g clip-path="url(#b)"><rect fill="#fff" height="47.8125" rx="23.9062" width="47.8125" x="6.5625" y="6.5625"/><path d="m30.2625.00106938c-16.7758-.14000638-30.401437 13.48563062-30.26143062 30.26143062.14000662 16.2907 13.45063062 29.6013 29.73643062 29.7364 16.7757.145 30.4064-13.4857 30.2614-30.2614-.1351-16.2858-13.4457-29.596424-29.7364-29.73643062zm-8.9704 14.93073062c1.92 2.4401 3.0701 5.5252 3.0701 8.8754 0 2.9001-.86 5.6002-2.3401 7.8553h-10.4005zm31.7114 20.4359c0 .14-.075.26-.205.315-.705.3-3.0301 1.3801-4.0002 2.7251-2.4951 3.4752-4.4002 8.9355-8.6604 8.9355h-17.7758c-6.2953 0-11.5605-4.9953-11.5555-11.6506 0-.165.14-.3.305-.3h8.4254c.29 0 .52.235.52.52v1.6251c0 .865.7 1.5651 1.5651 1.5651h6.3903v-3.7202h-4.3652c2.5101-3.1801 4.0052-7.1953 4.0052-11.5655 0-4.8753-1.8701-9.3205-4.9303-12.6456 1.8501.215 3.6202.585 5.2903 1.075v-1.035c0-1.0751.87-1.9451 1.9451-1.9451 1.075 0 1.9451.87 1.9451 1.9451v2.4951c5.9652 2.7851 9.8704 7.4053 9.8704 12.6306 0 3.0651-1.3401 5.9203-3.6552 8.3204-.445.46-1.06.72-1.705.72h-4.5102v3.7152h5.6602c1.2201 0 3.4102-2.3151 4.4502-3.7102 0 0 .045-.07.165-.105s10.3955-2.3951 10.3955-2.3951c.215-.06.43.105.43.325v2.1351z" fill="url(#a)"/></g></svg>